<?xml version="1.0" encoding="utf-8"?>
<!-- Generator: Adobe Illustrator 23.0.3, SVG Export Plug-In . SVG Version: 6.00 Build 0)  -->
<svg version="1.1" id="圖層_1" xmlns="http://www.w3.org/2000/svg" xmlns:xlink="http://www.w3.org/1999/xlink" x="0px" y="0px"
	 viewBox="0 0 100 119.3" style="enable-background:new 0 0 100 119.3;" xml:space="preserve">
<style type="text/css">
	.st0{fill:#FFFFFF;}
	.st1{fill:#A6A6A6;}
	.st2{fill:#FFFFFF;stroke:#FFFFFF;stroke-width:0.2;stroke-miterlimit:10;}
	.st3{fill:url(#SVGID_1_);}
	.st4{fill:url(#SVGID_2_);}
	.st5{fill:url(#SVGID_3_);}
	.st6{fill:url(#SVGID_4_);}
	.st7{opacity:0.2;enable-background:new    ;}
	.st8{opacity:0.12;enable-background:new    ;}
	.st9{opacity:0.25;fill:#FFFFFF;enable-background:new    ;}
</style>
<g>
	<rect x="48.3" y="0" width="3.4" height="3.4"/>
	<rect x="51.7" y="3.4" width="3.4" height="6.9"/>
	<polygon points="58.6,20.7 62.1,20.7 62.1,17.2 69,17.2 69,24.1 72.4,24.1 72.4,13.8 69,13.8 69,10.3 72.4,10.3 72.4,0 55.2,0 
		55.2,3.4 69,3.4 69,6.9 65.5,6.9 65.5,10.3 58.6,10.3 58.6,13.8 55.2,13.8 55.2,17.2 58.6,17.2 	"/>
	<polygon points="65.5,20.7 62.1,20.7 62.1,24.1 62.1,27.6 65.5,27.6 69,27.6 69,24.1 65.5,24.1 	"/>
	<rect x="51.7" y="34.5" width="3.4" height="3.4"/>
	<polygon points="44.8,17.2 44.8,20.7 48.3,20.7 48.3,20.7 48.3,24.1 51.7,24.1 51.7,27.6 48.3,27.6 48.3,31 55.2,31 55.2,34.5 
		58.6,34.5 58.6,31 62.1,31 62.1,27.6 58.6,27.6 55.2,27.6 55.2,24.1 58.6,24.1 58.6,20.7 55.2,20.7 55.2,24.1 51.7,24.1 51.7,20.7 
		55.2,20.7 55.2,17.2 48.3,17.2 48.3,13.8 41.4,13.8 41.4,17.2 	"/>
	<polygon points="58.6,41.4 58.6,44.8 62.1,44.8 62.1,41.4 58.6,41.4 58.6,37.9 55.2,37.9 55.2,41.4 	"/>
	<rect x="48.3" y="37.9" width="3.4" height="3.4"/>
	<rect x="79.3" y="27.6" width="3.4" height="3.4"/>
	<rect x="86.2" y="27.6" width="3.4" height="3.4"/>
	<polygon points="65.5,48.3 69,48.3 69,41.4 82.8,41.4 82.8,37.9 86.2,37.9 86.2,31 82.8,31 82.8,34.5 79.3,34.5 79.3,31 75.9,31 
		75.9,27.6 72.4,27.6 72.4,31 65.5,31 65.5,34.5 75.9,34.5 75.9,37.9 62.1,37.9 62.1,41.4 65.5,41.4 	"/>
	<rect x="69" y="48.3" width="6.9" height="6.9"/>
	<rect x="75.9" y="44.8" width="10.3" height="3.4"/>
	<rect x="79.3" y="51.7" width="3.4" height="3.4"/>
	<polygon points="93.1,41.4 96.6,41.4 96.6,37.9 93.1,37.9 93.1,41.4 86.2,41.4 86.2,44.8 89.7,44.8 89.7,51.7 93.1,51.7 93.1,44.8 
			"/>
	<rect x="96.6" y="44.8" width="3.4" height="3.4"/>
	<rect x="93.1" y="51.7" width="3.4" height="3.4"/>
	<rect x="75.9" y="75.9" width="3.4" height="3.4"/>
	<rect x="65.5" y="96.6" width="3.4" height="3.4"/>
	<polygon points="58.6,86.2 62.1,86.2 62.1,82.8 58.6,82.8 58.6,86.2 55.2,86.2 55.2,89.7 58.6,89.7 	"/>
	<polygon points="34.5,10.3 37.9,10.3 37.9,13.8 41.4,13.8 41.4,6.9 44.8,6.9 44.8,3.4 37.9,3.4 37.9,6.9 34.5,6.9 34.5,3.4 34.5,0 
		31,0 31,3.4 27.6,3.4 27.6,6.9 31,6.9 31,10.3 27.6,10.3 27.6,13.8 34.5,13.8 	"/>
	<polygon points="44.8,24.1 44.8,20.7 41.4,20.7 41.4,31 44.8,31 44.8,27.6 48.3,27.6 48.3,24.1 	"/>
	<rect x="34.5" y="13.8" width="3.4" height="10.3"/>
	<polygon points="55.2,89.7 51.7,89.7 51.7,93.1 48.3,93.1 48.3,96.6 51.7,96.6 51.7,100 62.1,100 62.1,96.6 55.2,96.6 	"/>
	<path d="M96.6,69v-3.4h-3.4V55.2h-3.4v3.4h-6.9v6.9h10.3V69h-3.4v3.4h-3.4V69h-6.9v-3.4h-3.4v-3.4h3.4v-3.4H65.5v-3.4h-6.9v-3.4
		h3.4v-3.4h-3.4v3.4h-3.4v-3.4h-3.4v-3.4H41.4v3.4h3.4v3.4h-3.4v6.9h3.4v-3.4h3.4v-3.4h3.4v3.4h-3.4v3.4h6.9v3.4h-3.4v3.4h-3.4V69
		h3.4v3.4h3.4V69h3.4v-3.4h3.4v-3.4H69V69h-3.4v3.4H69v3.4h-3.4v-3.4h-3.4v6.9h3.4v3.4H69v3.4h-3.4v3.4h-3.4v6.9h3.4v-3.4H69v3.4
		h3.4v3.4h3.4v-3.4h3.4v-3.4h3.4v3.4h-3.4v3.4h13.8v-3.4h-6.9v-6.9H72.4v-3.4h20.7v-3.4h-6.9v-3.4h6.9v-3.4h6.9v-3.4V69L96.6,69
		L96.6,69z M72.4,65.5h3.4V69h-3.4V65.5z M82.8,82.8H72.4V72.4h10.3V82.8z"/>
	<rect x="58.6" y="69" width="3.4" height="3.4"/>
	<polygon points="89.7,89.7 89.7,93.1 93.1,93.1 93.1,96.6 96.6,96.6 96.6,89.7 100,89.7 100,86.2 93.1,86.2 93.1,89.7 	"/>
	<polygon points="44.8,65.5 44.8,62.1 37.9,62.1 37.9,72.4 41.4,72.4 41.4,65.5 	"/>
	<rect x="48.3" y="82.8" width="6.9" height="3.4"/>
	<polygon points="55.2,79.3 55.2,82.8 58.6,82.8 58.6,72.4 55.2,72.4 55.2,75.9 51.7,75.9 51.7,72.4 41.4,72.4 41.4,75.9 44.8,75.9 
		44.8,79.3 41.4,79.3 41.4,86.2 44.8,86.2 44.8,82.8 48.3,82.8 48.3,79.3 	"/>
	<polygon points="37.9,93.1 34.5,93.1 34.5,96.6 37.9,96.6 37.9,100 41.4,100 41.4,93.1 44.8,93.1 44.8,89.7 37.9,89.7 	"/>
	<polygon points="31,82.8 27.6,82.8 27.6,100 34.5,100 34.5,96.6 31,96.6 	"/>
	<rect x="27.6" y="17.2" width="3.4" height="6.9"/>
	<rect x="20.7" y="62.1" width="3.4" height="3.4"/>
	<polygon points="31,79.3 31,72.4 34.5,72.4 34.5,62.1 31,62.1 31,65.5 27.6,65.5 27.6,69 20.7,69 20.7,72.4 27.6,72.4 27.6,79.3 	
		"/>
	<polygon points="10.3,65.5 10.3,69 13.8,69 13.8,72.4 17.2,72.4 17.2,69 20.7,69 20.7,65.5 	"/>
	<rect x="6.9" y="82.8" width="10.3" height="10.3"/>
	<path d="M0,100h24.1V75.9H0V100z M3.4,79.3h17.2v17.2H3.4h0V79.3z"/>
	<rect x="6.9" y="69" width="3.4" height="3.4"/>
	<polygon points="13.8,62.1 20.7,62.1 20.7,58.6 24.1,58.6 24.1,62.1 27.6,62.1 27.6,58.6 34.5,58.6 34.5,55.2 37.9,55.2 37.9,51.7 
		27.6,51.7 27.6,48.3 27.6,44.8 26.3,44.8 24.1,44.8 24.1,48.3 20.7,48.3 20.7,51.7 24.1,51.7 24.1,55.2 20.7,55.2 20.7,58.6 
		17.2,58.6 17.2,55.2 13.8,55.2 13.8,51.7 10.3,51.7 10.3,55.2 13.8,55.2 	"/>
	<polygon points="3.4,58.6 6.9,58.6 6.9,62.1 10.3,62.1 10.3,55.2 0,55.2 0,72.4 3.4,72.4 	"/>
	<rect y="48.3" width="6.9" height="3.4"/>
	<path d="M44.8,37.9v-3.4h-6.9v3.4h-3.4v-3.4V31h3.4v-3.4H20.7V31h3.4v3.4H6.9V31h10.3v-3.4H0v10.3h3.4v3.4h3.4v-3.4h10.3v10.3h3.4
		v-3.4h3.4v-3.4h-3.4v0v-3.4h3.4v3.4h3.4v-3.4H31v3.4v0h-3.4v3.4H31v3.4h6.9v-3.4h-3.4v-3.4v0h3.4v0v3.4h3.4v-6.9H44.8z M31,34.5
		h-3.4V31H31V34.5z"/>
	<rect x="6.9" y="41.4" width="6.9" height="6.9"/>
	<rect y="41.4" width="3.4" height="3.4"/>
	<rect x="6.9" y="6.9" width="10.3" height="10.3"/>
	<path d="M24.1,0H0v24.1h24.1V0z M20.7,20.7H3.4V3.4h17.2V20.7z"/>
	<rect x="96.6" y="58.6" width="3.4" height="3.4"/>
	<rect x="93.1" y="27.6" width="3.4" height="3.4"/>
	<rect x="96.6" y="31" width="3.4" height="3.4"/>
	<path d="M100,0H75.9v24.1H100V0z M96.6,20.7H79.3V3.4h17.2L96.6,20.7L96.6,20.7z"/>
	<rect x="82.8" y="6.9" width="10.3" height="10.3"/>
</g>
<g>
	<g>
		<g>
			<g>
				<path d="M41.8,103.9h-38c-0.1,0-0.3,0-0.4,0c-0.1,0-0.2,0-0.3,0c-0.3,0-0.5,0-0.8,0.1c-0.2,0-0.5,0.1-0.7,0.2
					c-0.2,0.1-0.4,0.3-0.6,0.4s-0.3,0.4-0.4,0.6c-0.1,0.2-0.2,0.5-0.2,0.7c0,0.3-0.1,0.5-0.1,0.8c0,0.1,0,0.2,0,0.3v8.7
					c0,0.1,0,0.2,0,0.3c0,0.3,0,0.5,0.1,0.8c0,0.3,0.1,0.5,0.2,0.7c0.1,0.2,0.3,0.4,0.4,0.6c0.2,0.2,0.4,0.3,0.6,0.4
					c0.2,0.1,0.5,0.2,0.7,0.2c0.3,0,0.5,0.1,0.8,0.1c0.1,0,0.2,0,0.3,0c0.1,0,0.3,0,0.4,0h38.1c0.1,0,0.3,0,0.4,0c0.1,0,0.2,0,0.3,0
					c0.3,0,0.5,0,0.8-0.1c0.3,0,0.5-0.1,0.7-0.2c0.2-0.1,0.4-0.3,0.6-0.4c0.2-0.2,0.3-0.4,0.4-0.6c0.1-0.2,0.2-0.5,0.2-0.7
					c0-0.3,0.1-0.5,0.1-0.8c0-0.1,0-0.2,0-0.3c0-0.1,0-0.3,0-0.4v-7.9c0-0.1,0-0.3,0-0.4c0-0.1,0-0.2,0-0.3c0-0.3,0-0.5-0.1-0.8
					c0-0.3-0.1-0.5-0.2-0.7c-0.2-0.5-0.6-0.8-1.1-1.1c-0.2-0.1-0.5-0.2-0.7-0.2c-0.3,0-0.5-0.1-0.8-0.1c-0.1,0-0.2,0-0.3,0
					C42.1,103.9,42,103.9,41.8,103.9L41.8,103.9z"/>
				<path class="st0" d="M3.4,118.7c-0.1,0-0.2,0-0.3,0c-0.2,0-0.5,0-0.7-0.1c-0.2,0-0.4-0.1-0.6-0.2c-0.2-0.1-0.4-0.2-0.5-0.4
					c-0.2-0.2-0.3-0.3-0.4-0.5c-0.1-0.2-0.2-0.4-0.2-0.6c0-0.2-0.1-0.5-0.1-0.7c0-0.1,0-0.3,0-0.3v-8.7c0,0,0-0.3,0-0.3
					c0-0.2,0-0.5,0.1-0.7c0-0.2,0.1-0.4,0.2-0.6c0.1-0.2,0.2-0.4,0.4-0.5c0.2-0.2,0.3-0.3,0.5-0.4c0.2-0.1,0.4-0.2,0.6-0.2
					c0.2,0,0.5-0.1,0.7-0.1l0.3,0h38.9l0.3,0c0.2,0,0.5,0,0.7,0.1c0.2,0,0.4,0.1,0.6,0.2c0.4,0.2,0.7,0.5,0.9,0.9
					c0.1,0.2,0.2,0.4,0.2,0.6c0,0.2,0.1,0.5,0.1,0.7c0,0.1,0,0.2,0,0.3c0,0.1,0,0.3,0,0.4v7.9c0,0.1,0,0.3,0,0.4c0,0.1,0,0.2,0,0.4
					c0,0.2,0,0.5-0.1,0.7c0,0.2-0.1,0.4-0.2,0.6c-0.1,0.2-0.2,0.4-0.4,0.5c-0.2,0.2-0.3,0.3-0.5,0.4c-0.2,0.1-0.4,0.2-0.6,0.2
					c-0.2,0-0.5,0.1-0.7,0.1c-0.1,0-0.2,0-0.3,0l-0.4,0L3.4,118.7z"/>
			</g>
			<g id="_Group__1_">
				<g id="_Group_2_1_">
					<g id="_Group_3_1_">
						<path id="_Path__1_" d="M9.6,111.4c0-0.7,0.4-1.3,0.9-1.6c-0.4-0.5-0.9-0.8-1.6-0.8c-0.7-0.1-1.3,0.4-1.6,0.4
							c-0.3,0-0.9-0.4-1.4-0.4c-0.7,0-1.4,0.4-1.8,1.1c-0.8,1.3-0.2,3.3,0.5,4.3c0.4,0.5,0.8,1.1,1.3,1.1c0.5,0,0.7-0.3,1.4-0.3
							c0.7,0,0.8,0.3,1.4,0.3c0.6,0,1-0.5,1.3-1c0.3-0.4,0.5-0.8,0.6-1.2C10.1,112.8,9.6,112.1,9.6,111.4z"/>
						<path id="_Path_2_1_" d="M8.5,108.2c0.3-0.4,0.5-0.9,0.4-1.4c-0.5,0.1-0.9,0.3-1.3,0.7c-0.3,0.4-0.5,0.8-0.4,1.3
							C7.8,108.8,8.2,108.6,8.5,108.2z"/>
					</g>
				</g>
				<g>
					<path d="M16.2,114.1h-1.8l-0.4,1.3h-0.8l1.7-4.7h0.8l1.7,4.7h-0.8L16.2,114.1z M14.6,113.5H16l-0.7-2.1h0L14.6,113.5z"/>
					<path d="M21,113.7c0,1.1-0.6,1.7-1.4,1.7c-0.4,0-0.9-0.2-1.1-0.6h0v1.7h-0.7V112h0.7v0.6h0c0.2-0.4,0.6-0.6,1.1-0.6
						C20.4,111.9,21,112.6,21,113.7z M20.3,113.7c0-0.7-0.4-1.1-0.9-1.1c-0.5,0-0.9,0.5-0.9,1.1c0,0.7,0.4,1.2,0.9,1.2
						C19.9,114.8,20.3,114.4,20.3,113.7L20.3,113.7z"/>
					<path d="M24.8,113.7c0,1.1-0.6,1.7-1.4,1.7c-0.4,0-0.9-0.2-1.1-0.6h0v1.7h-0.7V112h0.7v0.6h0c0.2-0.4,0.6-0.6,1.1-0.6
						C24.2,111.9,24.8,112.6,24.8,113.7z M24.1,113.7c0-0.7-0.4-1.1-0.9-1.1c-0.5,0-0.9,0.5-0.9,1.1c0,0.7,0.4,1.2,0.9,1.2
						C23.7,114.8,24.1,114.4,24.1,113.7z"/>
					<path d="M27.3,114.1c0.1,0.5,0.5,0.8,1.1,0.8c0.6,0,1-0.3,1-0.7c0-0.4-0.3-0.6-0.9-0.7l-0.6-0.1c-0.9-0.2-1.3-0.6-1.3-1.3
						c0-0.8,0.7-1.4,1.7-1.4c1,0,1.7,0.6,1.7,1.4h-0.7c0-0.5-0.4-0.8-1-0.8c-0.6,0-1,0.3-1,0.7c0,0.3,0.2,0.5,0.9,0.7l0.5,0.1
						c1,0.2,1.4,0.6,1.4,1.3c0,0.9-0.7,1.4-1.8,1.4c-1,0-1.7-0.5-1.8-1.4L27.3,114.1L27.3,114.1z"/>
					<path d="M31.7,111.2v0.8h0.7v0.6h-0.7v1.9c0,0.3,0.1,0.4,0.4,0.4c0.1,0,0.2,0,0.2,0v0.6c-0.1,0-0.3,0-0.4,0c-0.7,0-1-0.3-1-0.9
						v-2h-0.5V112H31v-0.8H31.7z"/>
					<path d="M32.7,113.7c0-1.1,0.6-1.8,1.6-1.8c1,0,1.6,0.7,1.6,1.8c0,1.1-0.6,1.8-1.6,1.8C33.3,115.4,32.7,114.8,32.7,113.7z
						 M35.2,113.7c0-0.7-0.3-1.2-0.9-1.2s-0.9,0.4-0.9,1.2c0,0.7,0.3,1.2,0.9,1.2S35.2,114.4,35.2,113.7z"/>
					<path d="M36.5,112h0.7v0.6h0c0.1-0.4,0.4-0.6,0.8-0.6c0.1,0,0.2,0,0.2,0v0.7c-0.1,0-0.2,0-0.3,0c-0.4,0-0.7,0.3-0.7,0.7
						c0,0,0,0.1,0,0.1v2h-0.7L36.5,112L36.5,112z"/>
					<path d="M41.5,114.4c-0.1,0.6-0.7,1-1.5,1c-1,0-1.6-0.7-1.6-1.7c0-1.1,0.6-1.8,1.6-1.8c0.9,0,1.5,0.7,1.5,1.7v0.2h-2.4v0
						c0,0.5,0.3,0.9,0.8,1c0,0,0.1,0,0.1,0c0.3,0,0.7-0.2,0.8-0.5H41.5z M39.2,113.4h1.7c0-0.5-0.3-0.8-0.8-0.9c0,0,0,0-0.1,0
						C39.5,112.5,39.2,112.9,39.2,113.4C39.2,113.4,39.2,113.4,39.2,113.4L39.2,113.4z"/>
				</g>
			</g>
		</g>
		<g id="_Group_4_1_">
			<g>
				<path d="M14.5,107.2c0.5,0,1,0.4,1.1,0.9c0,0.1,0,0.1,0,0.2c0,0.7-0.4,1.1-1.1,1.1h-0.8v-2.3H14.5z M14,109.1h0.4
					c0.4,0,0.7-0.3,0.8-0.7c0,0,0-0.1,0-0.1c0.1-0.4-0.2-0.7-0.6-0.8c0,0-0.1,0-0.1,0H14L14,109.1L14,109.1z"/>
				<path d="M15.9,108.6c0-0.4,0.3-0.8,0.7-0.9c0.4,0,0.8,0.3,0.9,0.7c0,0.1,0,0.1,0,0.2c0,0.4-0.3,0.8-0.7,0.9
					c-0.4,0-0.8-0.3-0.9-0.7C15.9,108.7,15.9,108.6,15.9,108.6z M17.2,108.6c0-0.4-0.2-0.6-0.5-0.6c-0.3,0-0.5,0.2-0.5,0.6
					c0,0.4,0.2,0.6,0.5,0.6C17,109.2,17.2,108.9,17.2,108.6L17.2,108.6z"/>
				<path d="M19.7,109.4h-0.3l-0.4-1.3h0l-0.4,1.3h-0.3l-0.5-1.7h0.3l0.3,1.3h0l0.4-1.3h0.3l0.4,1.3h0l0.3-1.3h0.3L19.7,109.4z"/>
				<path d="M20.5,107.7h0.3v0.3h0c0.1-0.2,0.3-0.3,0.5-0.3c0.3,0,0.6,0.2,0.6,0.5c0,0,0,0.1,0,0.1v1.1h-0.3v-1
					c0-0.3-0.1-0.4-0.4-0.4c-0.2,0-0.4,0.2-0.4,0.4c0,0,0,0,0,0.1v1h-0.3L20.5,107.7L20.5,107.7z"/>
				<path d="M22.5,107.1h0.3v2.4h-0.3V107.1z"/>
				<path d="M23.3,108.6c0-0.4,0.3-0.8,0.7-0.9c0.4,0,0.8,0.3,0.9,0.7c0,0.1,0,0.1,0,0.2c0,0.4-0.3,0.8-0.7,0.9
					c-0.4,0-0.8-0.3-0.9-0.7C23.3,108.7,23.3,108.6,23.3,108.6z M24.6,108.6c0-0.4-0.2-0.6-0.5-0.6c-0.3,0-0.5,0.2-0.5,0.6
					c0,0.4,0.2,0.6,0.5,0.6C24.4,109.2,24.6,108.9,24.6,108.6z"/>
				<path d="M25.3,108.9c0-0.3,0.2-0.5,0.6-0.5l0.5,0v-0.1c0-0.2-0.1-0.3-0.3-0.3c-0.2,0-0.3,0.1-0.4,0.2h-0.3
					c0-0.3,0.3-0.5,0.7-0.5c0.4,0,0.7,0.2,0.7,0.6v1.2h-0.3v-0.2h0c-0.1,0.2-0.3,0.3-0.5,0.3C25.6,109.5,25.3,109.3,25.3,108.9
					C25.3,109,25.3,109,25.3,108.9z M26.4,108.8v-0.1l-0.4,0c-0.2,0-0.3,0.1-0.3,0.2c0,0.2,0.1,0.2,0.3,0.2
					C26.1,109.2,26.3,109,26.4,108.8C26.4,108.8,26.4,108.8,26.4,108.8z"/>
				<path d="M27.1,108.6c0-0.5,0.3-0.9,0.7-0.9c0.2,0,0.4,0.1,0.5,0.3h0v-0.9h0.3v2.4h-0.3v-0.3h0c-0.1,0.2-0.3,0.3-0.5,0.3
					C27.4,109.5,27.1,109.1,27.1,108.6z M27.5,108.6c0,0.4,0.2,0.6,0.5,0.6c0.3,0,0.5-0.2,0.5-0.6c0-0.4-0.2-0.6-0.5-0.6
					C27.7,108,27.5,108.2,27.5,108.6L27.5,108.6z"/>
				<path d="M30.1,108.6c0-0.4,0.3-0.8,0.7-0.9c0.4,0,0.8,0.3,0.9,0.7c0,0.1,0,0.1,0,0.2c0,0.4-0.3,0.8-0.7,0.9
					c-0.4,0-0.8-0.3-0.9-0.7C30.1,108.7,30.1,108.6,30.1,108.6z M31.4,108.6c0-0.4-0.2-0.6-0.5-0.6c-0.3,0-0.5,0.2-0.5,0.6
					c0,0.4,0.2,0.6,0.5,0.6C31.2,109.2,31.4,108.9,31.4,108.6z"/>
				<path d="M32.2,107.7h0.3v0.3h0c0.1-0.2,0.3-0.3,0.5-0.3c0.3,0,0.6,0.2,0.6,0.5c0,0,0,0.1,0,0.1v1.1h-0.3v-1
					c0-0.3-0.1-0.4-0.4-0.4c-0.2,0-0.4,0.2-0.4,0.4c0,0,0,0,0,0.1v1h-0.3L32.2,107.7L32.2,107.7z"/>
				<path d="M35.5,107.3v0.4h0.4v0.3h-0.4v0.9c0,0.2,0.1,0.3,0.2,0.3c0,0,0.1,0,0.1,0v0.3c-0.1,0-0.1,0-0.2,0
					c-0.4,0-0.5-0.1-0.5-0.5v-1h-0.3v-0.3h0.3v-0.4C35.2,107.3,35.5,107.3,35.5,107.3z"/>
				<path d="M36.4,107.1h0.3v0.9h0c0.1-0.2,0.3-0.3,0.5-0.3c0.3,0,0.6,0.2,0.6,0.5c0,0,0,0.1,0,0.1v1.1h-0.3v-1
					c0-0.3-0.1-0.4-0.4-0.4c-0.2,0-0.4,0.1-0.4,0.4c0,0,0,0,0,0.1v1h-0.3L36.4,107.1L36.4,107.1z"/>
				<path d="M39.8,109c-0.1,0.3-0.4,0.5-0.7,0.5c-0.4,0-0.8-0.3-0.8-0.8c0,0,0-0.1,0-0.1c-0.1-0.4,0.2-0.8,0.7-0.9c0,0,0.1,0,0.1,0
					c0.5,0,0.8,0.3,0.8,0.9v0.1h-1.2v0c0,0.2,0.2,0.5,0.4,0.5c0,0,0,0,0,0c0.2,0,0.3-0.1,0.4-0.2C39.5,109,39.8,109,39.8,109z
					 M38.6,108.4h0.9c0-0.2-0.2-0.4-0.4-0.4c0,0,0,0,0,0C38.8,108,38.6,108.2,38.6,108.4C38.6,108.4,38.6,108.4,38.6,108.4
					L38.6,108.4z"/>
			</g>
		</g>
	</g>
	<g>
		<g>
			<path d="M97.8,119H50.5c-1,0-1.9-0.9-1.9-1.9v-11.3c0-1,0.9-1.9,1.9-1.9h47.3c1,0,1.9,0.9,1.9,1.9v11.3
				C99.7,118.1,98.8,119,97.8,119z"/>
		</g>
		<g>
			<g>
				<path class="st1" d="M97.8,104.2c0.9,0,1.6,0.7,1.6,1.6v11.3c0,0.9-0.7,1.6-1.6,1.6H50.5c-0.9,0-1.6-0.7-1.6-1.6v-11.3
					c0-0.9,0.7-1.6,1.6-1.6H97.8 M97.8,103.9H50.5c-1,0-1.9,0.9-1.9,1.9v11.3c0,1,0.9,1.9,1.9,1.9h47.3c1,0,1.9-0.9,1.9-1.9v-11.3
					C99.7,104.7,98.8,103.9,97.8,103.9L97.8,103.9z"/>
			</g>
		</g>
		<g>
			<path class="st2" d="M66.6,107.7c0,0.3-0.1,0.6-0.3,0.8c-0.2,0.2-0.5,0.3-0.8,0.3c-0.3,0-0.6-0.1-0.8-0.3
				c-0.2-0.2-0.3-0.5-0.3-0.8c0-0.3,0.1-0.6,0.3-0.8c0.2-0.2,0.5-0.3,0.8-0.3c0.2,0,0.3,0,0.5,0.1c0.1,0.1,0.3,0.1,0.4,0.3l-0.2,0.2
				c-0.1-0.2-0.4-0.3-0.6-0.3c-0.2,0-0.4,0.1-0.6,0.3c-0.2,0.2-0.3,0.4-0.3,0.7c0,0.3,0.1,0.5,0.3,0.7c0.2,0.2,0.4,0.3,0.6,0.3
				c0.3,0,0.5-0.1,0.6-0.3c0.1-0.1,0.2-0.3,0.2-0.5h-0.8v-0.3h1.1C66.6,107.6,66.6,107.7,66.6,107.7z"/>
			<path class="st2" d="M68.3,106.8h-1v0.7h0.9v0.3h-0.9v0.7h1v0.3H67v-2.3h1.3V106.8z"/>
			<path class="st2" d="M69.5,108.8h-0.3v-2h-0.6v-0.3h1.6v0.3h-0.6V108.8z"/>
			<path class="st2" d="M71.3,108.8v-2.3h0.3v2.3H71.3z"/>
			<path class="st2" d="M72.9,108.8h-0.3v-2H72v-0.3h1.6v0.3h-0.6V108.8z"/>
			<path class="st2" d="M76.5,108.5c-0.2,0.2-0.5,0.3-0.8,0.3c-0.3,0-0.6-0.1-0.8-0.3c-0.2-0.2-0.3-0.5-0.3-0.8
				c0-0.3,0.1-0.6,0.3-0.8c0.2-0.2,0.5-0.3,0.8-0.3c0.3,0,0.6,0.1,0.8,0.3c0.2,0.2,0.3,0.5,0.3,0.8C76.8,108,76.7,108.3,76.5,108.5z
				 M75,108.3c0.2,0.2,0.4,0.3,0.6,0.3c0.2,0,0.4-0.1,0.6-0.3c0.2-0.2,0.3-0.4,0.3-0.7s-0.1-0.5-0.3-0.7c-0.2-0.2-0.4-0.3-0.6-0.3
				c-0.2,0-0.4,0.1-0.6,0.3c-0.2,0.2-0.3,0.4-0.3,0.7S74.9,108.1,75,108.3z"/>
			<path class="st2" d="M77.2,108.8v-2.3h0.4l1.1,1.8h0l0-0.4v-1.3H79v2.3h-0.3l-1.2-1.9h0l0,0.4v1.4H77.2z"/>
		</g>
		<path class="st0" d="M74.4,112.1c-0.9,0-1.6,0.7-1.6,1.6c0,0.9,0.7,1.6,1.6,1.6c0.9,0,1.6-0.7,1.6-1.6
			C76,112.8,75.3,112.1,74.4,112.1z M74.4,114.7c-0.5,0-0.9-0.4-0.9-1c0-0.6,0.4-1,0.9-1s0.9,0.4,0.9,1
			C75.3,114.3,74.9,114.7,74.4,114.7z M70.9,112.1c-0.9,0-1.6,0.7-1.6,1.6c0,0.9,0.7,1.6,1.6,1.6c0.9,0,1.6-0.7,1.6-1.6
			C72.5,112.8,71.8,112.1,70.9,112.1z M70.9,114.7c-0.5,0-0.9-0.4-0.9-1c0-0.6,0.4-1,0.9-1c0.5,0,0.9,0.4,0.9,1
			C71.8,114.3,71.4,114.7,70.9,114.7z M66.7,112.6v0.7h1.6c0,0.4-0.2,0.7-0.4,0.9c-0.2,0.2-0.6,0.5-1.3,0.5c-1,0-1.8-0.8-1.8-1.8
			s0.8-1.8,1.8-1.8c0.5,0,0.9,0.2,1.2,0.5l0.5-0.5c-0.4-0.4-1-0.7-1.7-0.7c-1.4,0-2.5,1.1-2.5,2.5c0,1.4,1.2,2.5,2.5,2.5
			c0.7,0,1.3-0.2,1.7-0.7c0.5-0.5,0.6-1.1,0.6-1.6c0-0.2,0-0.3,0-0.4L66.7,112.6L66.7,112.6z M83.8,113.1c-0.1-0.4-0.5-1-1.4-1
			c-0.8,0-1.5,0.7-1.5,1.6c0,0.9,0.7,1.6,1.6,1.6c0.7,0,1.2-0.5,1.3-0.7l-0.5-0.4c-0.2,0.3-0.4,0.4-0.8,0.4c-0.4,0-0.6-0.2-0.8-0.5
			l2.2-0.9L83.8,113.1z M81.6,113.7c0-0.6,0.5-0.9,0.8-0.9c0.3,0,0.5,0.1,0.6,0.3L81.6,113.7z M79.9,115.2h0.7v-4.7h-0.7V115.2z
			 M78.7,112.5L78.7,112.5c-0.2-0.2-0.5-0.4-0.9-0.4c-0.8,0-1.5,0.7-1.5,1.6c0,0.9,0.7,1.6,1.5,1.6c0.4,0,0.7-0.2,0.8-0.4h0v0.2
			c0,0.6-0.3,0.9-0.9,0.9c-0.4,0-0.7-0.3-0.8-0.6l-0.6,0.3c0.2,0.4,0.6,1,1.4,1c0.8,0,1.5-0.5,1.5-1.7v-2.9h-0.7L78.7,112.5
			L78.7,112.5z M77.9,114.7c-0.5,0-0.9-0.4-0.9-1c0-0.6,0.4-1,0.9-1c0.5,0,0.9,0.4,0.9,1C78.8,114.3,78.4,114.7,77.9,114.7z
			 M87.1,110.5h-1.7v4.7h0.7v-1.8h1c0.8,0,1.6-0.6,1.6-1.5C88.7,111.1,87.9,110.5,87.1,110.5z M87.2,112.8h-1v-1.6h1
			c0.5,0,0.8,0.4,0.8,0.8C88,112.3,87.7,112.8,87.2,112.8z M91.5,112.1c-0.5,0-1,0.2-1.3,0.7l0.6,0.3c0.1-0.3,0.4-0.3,0.6-0.3
			c0.4,0,0.7,0.2,0.7,0.6v0c-0.1-0.1-0.4-0.2-0.7-0.2c-0.7,0-1.4,0.4-1.4,1.1c0,0.6,0.6,1,1.2,1c0.5,0,0.7-0.2,0.9-0.5h0v0.4H93
			v-1.8C93,112.6,92.3,112.1,91.5,112.1z M91.4,114.7c-0.2,0-0.6-0.1-0.6-0.4c0-0.4,0.4-0.5,0.7-0.5c0.3,0,0.5,0.1,0.6,0.2
			C92.2,114.4,91.8,114.7,91.4,114.7z M95.4,112.2l-0.8,2h0l-0.8-2H93l1.3,2.9l-0.7,1.6h0.7l1.9-4.5L95.4,112.2L95.4,112.2z
			 M89.1,115.2h0.7v-4.7h-0.7V115.2z"/>
		<g>
			
				<linearGradient id="SVGID_1_" gradientUnits="userSpaceOnUse" x1="56.8852" y1="927.0485" x2="50.5372" y2="933.3965" gradientTransform="matrix(1 0 0 1 0 -819.89)">
				<stop  offset="0" style="stop-color:#00A0FF"/>
				<stop  offset="6.599999e-03" style="stop-color:#00A1FF"/>
				<stop  offset="0.2601" style="stop-color:#00BEFF"/>
				<stop  offset="0.5122" style="stop-color:#00D2FF"/>
				<stop  offset="0.7604" style="stop-color:#00DFFF"/>
				<stop  offset="1" style="stop-color:#00E3FF"/>
			</linearGradient>
			<path class="st3" d="M52.6,106.7c-0.1,0.1-0.2,0.3-0.2,0.5v8.4c0,0.2,0.1,0.4,0.2,0.5l0,0l4.7-4.7v-0.1v-0.1L52.6,106.7
				L52.6,106.7z"/>
			
				<linearGradient id="SVGID_2_" gradientUnits="userSpaceOnUse" x1="61.4353" y1="931.3201" x2="52.2839" y2="931.3201" gradientTransform="matrix(1 0 0 1 0 -819.89)">
				<stop  offset="0" style="stop-color:#FFE000"/>
				<stop  offset="0.4087" style="stop-color:#FFBD00"/>
				<stop  offset="0.7754" style="stop-color:#FFA500"/>
				<stop  offset="1" style="stop-color:#FF9C00"/>
			</linearGradient>
			<path class="st4" d="M58.9,113l-1.6-1.6v-0.1v-0.1l1.6-1.6l0,0l1.9,1.1c0.5,0.3,0.5,0.8,0,1.1L58.9,113L58.9,113z"/>
			
				<linearGradient id="SVGID_3_" gradientUnits="userSpaceOnUse" x1="58.0292" y1="932.1875" x2="49.4219" y2="940.7948" gradientTransform="matrix(1 0 0 1 0 -819.89)">
				<stop  offset="0" style="stop-color:#FF3A44"/>
				<stop  offset="1" style="stop-color:#C31162"/>
			</linearGradient>
			<path class="st5" d="M58.9,113l-1.6-1.6l-4.7,4.7c0.2,0.2,0.5,0.2,0.8,0L58.9,113"/>
			
				<linearGradient id="SVGID_4_" gradientUnits="userSpaceOnUse" x1="51.3988" y1="923.8216" x2="55.2425" y2="927.6652" gradientTransform="matrix(1 0 0 1 0 -819.89)">
				<stop  offset="0" style="stop-color:#32A071"/>
				<stop  offset="6.850000e-02" style="stop-color:#2DA771"/>
				<stop  offset="0.4762" style="stop-color:#15CF74"/>
				<stop  offset="0.8009" style="stop-color:#06E775"/>
				<stop  offset="1" style="stop-color:#00F076"/>
			</linearGradient>
			<path class="st6" d="M58.9,109.8l-5.5-3.1c-0.3-0.2-0.6-0.2-0.8,0l4.7,4.7L58.9,109.8z"/>
			<g>
				<path class="st7" d="M58.9,113l-5.5,3.1c-0.3,0.2-0.6,0.2-0.8,0l0,0l0,0l0,0l0,0v0c0.2,0.2,0.5,0.2,0.8,0L58.9,113L58.9,113z"/>
				<path class="st8" d="M52.6,116.1c-0.1-0.1-0.2-0.3-0.2-0.5v0.1C52.4,115.8,52.5,116,52.6,116.1L52.6,116.1L52.6,116.1z"/>
			</g>
			<path class="st8" d="M60.7,111.9l-1.9,1.1l0,0L60.7,111.9c0.3-0.1,0.4-0.3,0.4-0.5l0,0C61.1,111.6,61,111.8,60.7,111.9z"/>
			<path class="st9" d="M53.4,106.7l7.4,4.2c0.2,0.1,0.4,0.3,0.4,0.5l0,0c0-0.2-0.1-0.4-0.4-0.5L53.4,106.7c-0.5-0.4-1-0.1-1,0.5
				v0.1C52.4,106.7,52.8,106.4,53.4,106.7z"/>
		</g>
	</g>
</g>
</svg>
